# xmcd
#
# Track frame offsets: 
#        150
#        16994
#        34376
#        53159
#        71424
#        92428
#        123637
#        139541
#        158612
#        179216
#        220806
#        250132
#        267249
#        295647
#
# Disc length: 4199 seconds
#
# Revision: 0
# Processed by: cddbd v1.5.2PL0 Copyright (c) Steve Scherf et al.
# Submitted via: ExactAudioCopyFreeDBPlugin 1.0
#
DISCID=c710650e
DTITLE=Various Artist - Soul Bag Sampler, Sep 2011
DYEAR=2011
DGENRE=Blues
TTITLE0=Hazmat Modine - Mocking bird
TTITLE1=Booker T. Jones - Down in Mamphis
TTITLE2=Mighty Sam McClain - Knut Reiersrud - Life
TTITLE3=Kenny "Blues Boss" Wayne - Wild turkey 101 proof
TTITLE4=The Butanes feat. Willie Walker - Dirty deeds
TTITLE5=Warren Haynes - Sick of my shadow
TTITLE6=Hell's Kitchen - Wait
TTITLE7=Bigg Robb - Young folks love the blues
TTITLE8=Geno Young - Otherside of life
TTITLE9=Al Basile - Mr. Graham Bell
TTITLE10=Bombino - Tar Hani (My love)
TTITLE11=Lightnin' Malcom - North Mississippi
TTITLE12=Mr. President - Who's gonna fall
TTITLE13=Dennis Coffey - Space traveller
EXTD=
EXTT0=
EXTT1=
EXTT2=
EXTT3=
EXTT4=
EXTT5=
EXTT6=
EXTT7=
EXTT8=
EXTT9=
EXTT10=
EXTT11=
EXTT12=
EXTT13=
PLAYORDER=
